<?xml version="1.0" encoding="UTF-8" standalone="no"?>
<!-- Created with Inkscape (http://www.inkscape.org/) -->

<svg
   xmlns:dc="http://purl.org/dc/elements/1.1/"
   xmlns:cc="http://creativecommons.org/ns#"
   xmlns:rdf="http://www.w3.org/1999/02/22-rdf-syntax-ns#"
   xmlns:svg="http://www.w3.org/2000/svg"
   xmlns="http://www.w3.org/2000/svg"
   xmlns:sodipodi="http://sodipodi.sourceforge.net/DTD/sodipodi-0.dtd"
   xmlns:inkscape="http://www.inkscape.org/namespaces/inkscape"
   id="svg2"
   version="1.1"
   inkscape:version="0.91 r13725"
   xml:space="preserve"
   width="3in"
   height="3in"
   viewBox="0 0 270 270"
   sodipodi:docname="vcfR_hexagon_v4.svg"><metadata
     id="metadata8"><rdf:RDF><cc:Work
         rdf:about=""><dc:format>image/svg+xml</dc:format><dc:type
           rdf:resource="http://purl.org/dc/dcmitype/StillImage" /><dc:title></dc:title></cc:Work></rdf:RDF></metadata><defs
     id="defs6"><clipPath
       clipPathUnits="userSpaceOnUse"
       id="clipPath46"><path
         d="M 0,792 612,792 612,0 0,0 0,792 Z"
         id="path48"
         inkscape:connector-curvature="0" /></clipPath></defs><sodipodi:namedview
     pagecolor="#ffffff"
     bordercolor="#666666"
     borderopacity="1"
     objecttolerance="10"
     gridtolerance="10"
     guidetolerance="10"
     inkscape:pageopacity="0"
     inkscape:pageshadow="2"
     inkscape:window-width="1855"
     inkscape:window-height="1056"
     id="namedview4"
     showgrid="false"
     inkscape:zoom="2.71"
     inkscape:cx="31.471101"
     inkscape:cy="123.16932"
     inkscape:window-x="65"
     inkscape:window-y="24"
     inkscape:window-maximized="1"
     inkscape:current-layer="g10"
     units="in" /><g
     id="g10"
     inkscape:groupmode="layer"
     inkscape:label="vcfR_hexagon_v2"
     transform="matrix(1.25,0,0,-1.25,0,270)"><g
       id="g5941"><g
         id="g44"
         clip-path="url(#clipPath46)"><g
           id="g1070"
           transform="translate(214.019,41.4053)" /><g
           id="g1082"
           transform="translate(396.4404,49.7627)" /><path
           inkscape:connector-curvature="0"
           id="path1006"
           style="fill:#d38d5f;stroke:#231f20;stroke-width:1.25;stroke-linecap:butt;stroke-linejoin:miter;stroke-miterlimit:4;stroke-dasharray:none;stroke-opacity:1"
           d="m 88.16667,168.68645 -62.354,-36 -4.5,-2.598 0,-5.196 0,-72 0,-5.196 4.5,-2.598 62.354,-36 4.5,-2.599 4.5,2.599 62.354,36 4.5,2.598 0,5.196 0,72 0,5.196 -4.5,2.598 -62.354,36 -4.5,2.598 -4.5,-2.598 z" /><g
           id="g1008"
           transform="translate(72.73207,200.05555)"><path
             d="m 0,0 0,1.164 2.028,0 0,5.316 -1.836,-0.72 -0.216,1.212 2.376,0.828 1.008,0 0,-6.636 1.776,0 L 5.136,0 0,0 Z"
             style="fill:#231f20;fill-opacity:1;fill-rule:nonzero;stroke:none"
             id="path1010"
             inkscape:connector-curvature="0" /></g><g
           id="g1012"
           transform="translate(80.78387,200.78755)"><path
             d="m 0,0 c 0,-0.232 -0.084,-0.432 -0.252,-0.6 -0.168,-0.168 -0.368,-0.252 -0.6,-0.252 -0.232,0 -0.432,0.084 -0.6,0.252 -0.168,0.168 -0.252,0.368 -0.252,0.6 0,0.232 0.084,0.432 0.252,0.6 0.168,0.168 0.368,0.252 0.6,0.252 0.232,0 0.432,-0.084 0.6,-0.252 C -0.084,0.432 0,0.232 0,0"
             style="fill:#231f20;fill-opacity:1;fill-rule:nonzero;stroke:none"
             id="path1014"
             inkscape:connector-curvature="0" /></g><g
           id="g1016"
           transform="translate(86.50207,205.06535)"><path
             d="M 0,0 C -0.276,-0.58 -0.536,-1.158 -0.78,-1.734 -1.024,-2.31 -1.25,-2.876 -1.458,-3.432 -1.667,-3.988 -1.85,-4.514 -2.01,-5.01 l -1.476,0 c 0.184,0.536 0.388,1.088 0.612,1.656 0.224,0.568 0.457,1.136 0.702,1.704 0.244,0.568 0.494,1.126 0.75,1.674 0.256,0.548 0.516,1.062 0.78,1.542 -0.08,0 -0.222,-0.002 -0.426,-0.006 C -1.272,1.556 -1.506,1.552 -1.77,1.548 -2.034,1.544 -2.312,1.54 -2.604,1.536 -2.896,1.532 -3.174,1.53 -3.438,1.53 l -1.044,0 0,1.26 5.328,0 0,-1.104 C 0.558,1.142 0.276,0.58 0,0"
             style="fill:#231f20;fill-opacity:1;fill-rule:nonzero;stroke:none"
             id="path1018"
             inkscape:connector-curvature="0" /></g><g
           id="g1020"
           transform="translate(93.71937,202.47945)"><path
             d="M 0,0 C 0,-0.4 -0.08,-0.756 -0.24,-1.068 -0.4,-1.38 -0.626,-1.646 -0.918,-1.866 -1.21,-2.086 -1.564,-2.254 -1.98,-2.37 c -0.416,-0.116 -0.876,-0.174 -1.38,-0.174 -0.28,0 -0.554,0.015 -0.822,0.045 -0.268,0.03 -0.498,0.075 -0.69,0.135 l 0.132,1.116 c 0.223,-0.072 0.456,-0.128 0.699,-0.168 0.243,-0.04 0.504,-0.06 0.784,-0.06 0.621,0 1.088,0.122 1.399,0.368 0.311,0.245 0.466,0.565 0.466,0.959 0,0.385 -0.151,0.692 -0.454,0.921 C -2.149,1.001 -2.611,1.116 -3.232,1.116 -3.448,1.116 -3.647,1.11 -3.83,1.098 -4.014,1.086 -4.209,1.072 -4.416,1.056 l 0,1.008 0.3,0 c 0.8,0 1.43,0.105 1.89,0.316 0.46,0.211 0.69,0.544 0.69,0.997 0,0.327 -0.122,0.583 -0.366,0.77 -0.244,0.187 -0.586,0.281 -1.026,0.281 -0.336,0 -0.644,-0.04 -0.924,-0.12 -0.28,-0.08 -0.54,-0.18 -0.78,-0.3 L -4.752,5.1 c 0.288,0.116 0.602,0.211 0.942,0.285 0.34,0.074 0.714,0.111 1.122,0.111 0.416,0 0.782,-0.048 1.098,-0.144 0.316,-0.096 0.576,-0.228 0.78,-0.396 0.204,-0.168 0.358,-0.366 0.462,-0.594 0.104,-0.228 0.156,-0.478 0.156,-0.75 0,-0.456 -0.124,-0.836 -0.372,-1.14 -0.248,-0.304 -0.6,-0.524 -1.056,-0.66 L -1.632,1.788 C -1.392,1.764 -1.172,1.7 -0.972,1.596 -0.772,1.492 -0.6,1.36 -0.456,1.2 -0.312,1.04 -0.2,0.858 -0.12,0.654 -0.04,0.45 0,0.232 0,0"
             style="fill:#231f20;fill-opacity:1;fill-rule:nonzero;stroke:none"
             id="path1022"
             inkscape:connector-curvature="0" /></g><g
           id="g1024"
           transform="translate(95.24377,200.05555)"><path
             d="m 0,0 0,1.044 1.48,1.44 C 1.914,2.908 2.264,3.268 2.527,3.564 2.793,3.86 3,4.116 3.148,4.332 3.297,4.548 3.395,4.74 3.443,4.908 3.49,5.076 3.516,5.248 3.516,5.424 3.516,5.808 3.391,6.126 3.143,6.378 2.893,6.63 2.535,6.756 2.07,6.756 1.725,6.756 1.402,6.698 1.102,6.582 0.8,6.466 0.549,6.332 0.349,6.18 L 0.06,7.308 C 0.363,7.484 0.705,7.63 1.086,7.746 1.465,7.862 1.875,7.92 2.314,7.92 2.756,7.92 3.137,7.858 3.461,7.734 3.785,7.61 4.055,7.442 4.271,7.23 4.488,7.018 4.646,6.776 4.752,6.504 4.855,6.232 4.908,5.948 4.908,5.652 4.908,5.396 4.879,5.15 4.824,4.914 4.768,4.678 4.668,4.432 4.523,4.176 4.379,3.92 4.182,3.648 3.93,3.36 3.678,3.072 3.359,2.744 2.975,2.376 L 1.752,1.224 1.752,1.2 C 2.016,1.216 2.348,1.226 2.748,1.23 3.146,1.234 3.6,1.236 4.104,1.236 l 1.091,0 L 5.195,0 0,0 Z"
             style="fill:#231f20;fill-opacity:1;fill-rule:nonzero;stroke:none"
             id="path1026"
             inkscape:connector-curvature="0" /></g><g
           id="g1028"
           transform="translate(102.03487,200.05555)"><path
             d="m 0,0 0,1.164 2.028,0 0,5.316 -1.836,-0.72 -0.215,1.212 2.376,0.828 1.007,0 0,-6.636 1.777,0 L 5.137,0 0,0 Z"
             style="fill:#231f20;fill-opacity:1;fill-rule:nonzero;stroke:none"
             id="path1030"
             inkscape:connector-curvature="0" /></g><g
           id="g1032"
           transform="translate(109.34247,208.99555)"><path
             d="M 0,0 C 0.248,0 0.452,-0.098 0.612,-0.294 0.772,-0.49 0.851,-0.75 0.847,-1.074 0.843,-1.398 0.732,-1.77 0.517,-2.19 0.301,-2.61 -0.06,-3.048 -0.563,-3.504 l -0.541,0.48 c 0.193,0.216 0.342,0.41 0.451,0.582 0.107,0.172 0.177,0.33 0.21,0.474 0.031,0.144 0.034,0.276 0.006,0.396 -0.029,0.12 -0.083,0.228 -0.163,0.324 -0.095,0.12 -0.152,0.252 -0.168,0.396 -0.016,0.144 0.004,0.278 0.06,0.402 0.057,0.124 0.145,0.23 0.265,0.318 C -0.323,-0.044 -0.176,0 0,0 M 2.437,0 C 2.685,0 2.889,-0.098 3.049,-0.294 3.208,-0.49 3.286,-0.75 3.282,-1.074 3.278,-1.398 3.166,-1.77 2.946,-2.19 2.727,-2.61 2.364,-3.048 1.86,-3.504 l -0.54,0.48 c 0.201,0.216 0.355,0.41 0.462,0.582 0.109,0.172 0.178,0.33 0.21,0.474 0.032,0.144 0.032,0.276 0,0.396 -0.032,0.12 -0.088,0.228 -0.168,0.324 -0.095,0.12 -0.149,0.252 -0.162,0.396 -0.012,0.144 0.011,0.278 0.067,0.402 0.055,0.124 0.143,0.23 0.263,0.318 C 2.112,-0.044 2.261,0 2.437,0"
             style="fill:#231f20;fill-opacity:1;fill-rule:nonzero;stroke:none"
             id="path1034"
             inkscape:connector-curvature="0" /></g><g
           id="g1036"
           transform="translate(195.30627,94.42815)"><path
             d="m 0,0 1.044,0 1.44,-1.481 C 2.908,-1.915 3.269,-2.264 3.564,-2.528 3.86,-2.793 4.116,-3 4.332,-3.148 4.548,-3.297 4.74,-3.396 4.908,-3.443 c 0.168,-0.049 0.34,-0.073 0.516,-0.073 0.385,0 0.702,0.125 0.954,0.373 0.252,0.249 0.378,0.607 0.378,1.072 0,0.345 -0.058,0.669 -0.174,0.969 -0.116,0.302 -0.25,0.553 -0.401,0.753 L 7.309,-0.06 C 7.484,-0.364 7.63,-0.706 7.746,-1.086 7.862,-1.466 7.92,-1.876 7.92,-2.316 7.92,-2.756 7.858,-3.138 7.734,-3.462 7.61,-3.786 7.442,-4.056 7.23,-4.272 7.019,-4.488 6.776,-4.648 6.504,-4.752 6.232,-4.856 5.948,-4.908 5.652,-4.908 5.396,-4.908 5.15,-4.88 4.914,-4.824 4.678,-4.768 4.433,-4.668 4.176,-4.524 3.92,-4.38 3.648,-4.182 3.36,-3.93 3.072,-3.678 2.744,-3.36 2.376,-2.976 l -1.151,1.224 -0.025,0 c 0.016,-0.264 0.027,-0.596 0.03,-0.996 0.004,-0.4 0.006,-0.852 0.006,-1.356 l 0,-1.092 L 0,-5.196 0,0 Z"
             style="fill:#231f20;fill-opacity:1;fill-rule:nonzero;stroke:none"
             id="path1038"
             inkscape:connector-curvature="0" /></g><g
           id="g1040"
           transform="translate(204.24677,84.49205)"><path
             d="m 0,0 c 0,-0.248 -0.099,-0.452 -0.294,-0.612 -0.196,-0.159 -0.456,-0.238 -0.78,-0.234 -0.324,0.004 -0.697,0.117 -1.116,0.336 -0.42,0.22 -0.858,0.582 -1.314,1.086 l 0.48,0.54 c 0.215,-0.2 0.41,-0.353 0.582,-0.462 0.171,-0.108 0.33,-0.178 0.474,-0.21 0.144,-0.032 0.276,-0.032 0.396,0 0.12,0.032 0.228,0.088 0.324,0.168 0.12,0.096 0.252,0.151 0.395,0.162 C -0.708,0.786 -0.574,0.765 -0.45,0.708 -0.326,0.652 -0.221,0.563 -0.132,0.444 -0.044,0.324 0,0.177 0,0 M 0,2.437 C 0,2.188 -0.099,1.984 -0.294,1.824 -0.49,1.664 -0.75,1.586 -1.074,1.591 -1.398,1.595 -1.771,1.704 -2.19,1.92 -2.61,2.137 -3.048,2.496 -3.504,3 l 0.48,0.54 c 0.215,-0.191 0.41,-0.342 0.582,-0.449 0.171,-0.109 0.33,-0.179 0.474,-0.211 0.144,-0.031 0.276,-0.033 0.396,-0.006 0.12,0.028 0.228,0.082 0.324,0.162 0.12,0.097 0.252,0.152 0.395,0.168 C -0.708,3.221 -0.574,3.2 -0.45,3.145 -0.326,3.089 -0.221,3 -0.132,2.88 -0.044,2.761 0,2.612 0,2.437"
             style="fill:#231f20;fill-opacity:1;fill-rule:nonzero;stroke:none"
             id="path1042"
             inkscape:connector-curvature="0" /></g><g
           id="g1090"
           transform="translate(155.02217,190.38275)"><path
             d="M 0,0 0,9.506"
             style="fill:none;stroke:#231f20;stroke-width:0.81599998;stroke-linecap:butt;stroke-linejoin:miter;stroke-miterlimit:4;stroke-dasharray:none;stroke-opacity:1"
             id="path1092"
             inkscape:connector-curvature="0" /></g><g
           id="g1094"
           transform="translate(30.31117,190.38275)"><path
             d="M 0,0 0,9.506"
             style="fill:none;stroke:#231f20;stroke-width:0.81400001;stroke-linecap:butt;stroke-linejoin:miter;stroke-miterlimit:4;stroke-dasharray:none;stroke-opacity:1"
             id="path1096"
             inkscape:connector-curvature="0" /></g><g
           id="g1098"
           transform="translate(33.73507,195.13565)"><path
             d="M 0,0 117.863,0"
             style="fill:none;stroke:#231f20;stroke-width:0.81400001;stroke-linecap:butt;stroke-linejoin:miter;stroke-miterlimit:4;stroke-dasharray:none;stroke-opacity:1"
             id="path1100"
             inkscape:connector-curvature="0" /></g><g
           id="g1102"
           transform="translate(34.26527,199.09125)"><path
             d="M 0,0 0,-7.912 -3.954,-3.956 0,0 Z"
             style="fill:#231f20;fill-opacity:1;fill-rule:nonzero;stroke:none"
             id="path1104"
             inkscape:connector-curvature="0" /></g><g
           id="g1106"
           transform="translate(151.06807,199.09125)"><path
             d="M 0,0 0,-7.912 3.954,-3.956 0,0 Z"
             style="fill:#231f20;fill-opacity:1;fill-rule:nonzero;stroke:none"
             id="path1108"
             inkscape:connector-curvature="0" /></g><g
           id="g1110"
           transform="translate(185.66667,16.91885)"><path
             d="M 0,0 8.333,0"
             style="fill:none;stroke:#231f20;stroke-width:0.81599998;stroke-linecap:butt;stroke-linejoin:miter;stroke-miterlimit:4;stroke-dasharray:none;stroke-opacity:1"
             id="path1112"
             inkscape:connector-curvature="0" /></g><g
           id="g1114"
           transform="translate(185.66667,160.91885)"><path
             d="M 0,0 8.333,0"
             style="fill:none;stroke:#231f20;stroke-width:0.81400001;stroke-linecap:butt;stroke-linejoin:miter;stroke-miterlimit:4;stroke-dasharray:none;stroke-opacity:1"
             id="path1116"
             inkscape:connector-curvature="0" /></g><g
           id="g1118"
           transform="translate(189.83367,157.49505)"><path
             d="M 0,0 0,-137.152"
             style="fill:none;stroke:#231f20;stroke-width:0.81400001;stroke-linecap:butt;stroke-linejoin:miter;stroke-miterlimit:4;stroke-dasharray:none;stroke-opacity:1"
             id="path1120"
             inkscape:connector-curvature="0" /></g><g
           id="g1122"
           transform="translate(193.78877,156.96475)"><path
             d="M 0,0 -7.911,0 -3.956,3.954 0,0 Z"
             style="fill:#231f20;fill-opacity:1;fill-rule:nonzero;stroke:none"
             id="path1124"
             inkscape:connector-curvature="0" /></g><g
           id="g1126"
           transform="translate(193.78877,20.87345)"><path
             d="M 0,0 -7.911,0 -3.956,-3.955 0,0 Z"
             style="fill:#231f20;fill-opacity:1;fill-rule:nonzero;stroke:none"
             id="path1128"
             inkscape:connector-curvature="0" /></g><g
           id="g1198"
           transform="translate(443.7627,733.4585)" /><path
           inkscape:connector-curvature="0"
           id="path998"
           style="fill:#ffe6d5;stroke:#000000;stroke-width:1.25;stroke-linecap:butt;stroke-linejoin:miter;stroke-miterlimit:4;stroke-dasharray:none;stroke-opacity:1;fill-opacity:1"
           d="m 39.31267,119.69615 0,-61.608 53.354,-30.804 53.354,30.804 0,61.608 -53.354,30.804 -53.354,-30.804 z" /></g></g><flowRoot
       xml:space="preserve"
       id="flowRoot4238"
       style="font-style:normal;font-variant:normal;font-weight:normal;font-stretch:normal;font-size:12.5px;line-height:100%;font-family:Sans;-inkscape-font-specification:'Sans, Normal';text-align:start;letter-spacing:0px;word-spacing:0px;writing-mode:lr-tb;text-anchor:start;fill:#000000;fill-opacity:1;stroke:none;stroke-width:1px;stroke-linecap:butt;stroke-linejoin:miter;stroke-opacity:1"
       transform="matrix(0.8,0,0,-0.8,0,216)"><flowRegion
         id="flowRegion4240"><rect
           id="rect4242"
           width="55.350555"
           height="44.649445"
           x="61.254612"
           y="122.76752" /></flowRegion><flowPara
         id="flowPara4244">0/1, 1/1,</flowPara><flowPara
         id="flowPara4246">0/1, 0/1.</flowPara><flowPara
         id="flowPara4248">1/1, 0/1</flowPara></flowRoot><flowRoot
       transform="matrix(0.8,0,0,-0.8,50.416937,215.49359)"
       xml:space="preserve"
       id="flowRoot4238-1"
       style="font-style:normal;font-variant:normal;font-weight:normal;font-stretch:normal;font-size:12.5px;line-height:100%;font-family:Sans;-inkscape-font-specification:'Sans, Normal';text-align:start;letter-spacing:0px;word-spacing:0px;writing-mode:lr-tb;text-anchor:start;fill:#000000;fill-opacity:1;stroke:none;stroke-width:1px;stroke-linecap:butt;stroke-linejoin:miter;stroke-opacity:1"><flowRegion
         id="flowRegion4240-5"><rect
           id="rect4242-4"
           width="55.350555"
           height="44.649445"
           x="61.254612"
           y="122.76752" /></flowRegion><flowPara
         id="flowPara4244-9">0/0, 0/1,</flowPara><flowPara
         id="flowPara4246-2">0/1, 0/0.</flowPara><flowPara
         id="flowPara4248-5">0/1, 0/0</flowPara></flowRoot><g
       transform="matrix(0.8,0,0,-0.8,0.4151057,231.53887)"
       style="font-style:normal;font-weight:normal;font-size:40px;line-height:125%;font-family:Sans;letter-spacing:0px;word-spacing:0px;fill:#000000;fill-opacity:1;stroke:none;stroke-width:1px;stroke-linecap:butt;stroke-linejoin:miter;stroke-opacity:1"
       id="flowRoot4260"><path
         inkscape:connector-curvature="0"
         d="m 73.884766,195.37583 3.808593,0 6.835938,18.35937 6.835937,-18.35937 3.808594,0 -8.203125,21.875 -4.882812,0 -8.203125,-21.875 z"
         id="path4199" /><path
         inkscape:connector-curvature="0"
         d="m 115.87695,196.21567 0,3.35937 q -1.52343,-0.83984 -3.0664,-1.25 -1.52344,-0.42968 -3.08594,-0.42968 -3.49609,0 -5.42969,2.22656 -1.93359,2.20703 -1.93359,6.21094 0,4.0039 1.93359,6.23047 1.9336,2.20703 5.42969,2.20703 1.5625,0 3.08594,-0.41016 1.54297,-0.42969 3.0664,-1.26953 l 0,3.32031 q -1.5039,0.70313 -3.125,1.05469 -1.60156,0.35156 -3.41797,0.35156 -4.9414,0 -7.85156,-3.10547 -2.910154,-3.10547 -2.910154,-8.3789 0,-5.35157 2.929684,-8.41797 2.94922,-3.06641 8.06641,-3.06641 1.66016,0 3.24219,0.35156 1.58203,0.33204 3.0664,1.01563 z"
         id="path4201" /><path
         inkscape:connector-curvature="0"
         d="m 133.24023,186.8602 0,2.98828 -3.4375,0 q -1.93359,0 -2.69531,0.78125 -0.74219,0.78125 -0.74219,2.8125 l 0,1.9336 5.91797,0 0,2.79296 -5.91797,0 0,19.08204 -3.61328,0 0,-19.08204 -3.4375,0 0,-2.79296 3.4375,0 0,-1.52344 q 0,-3.65235 1.69922,-5.3125 1.69922,-1.67969 5.39063,-1.67969 l 3.39843,0 z"
         id="path4203" /><path
         inkscape:connector-curvature="0"
         d="m 150.21289,203.57895 q 1.26953,0.42969 2.46094,1.83594 1.21094,1.40625 2.42187,3.86719 l 4.00391,7.96875 -4.23828,0 -3.73047,-7.48047 q -1.44531,-2.92969 -2.8125,-3.88672 -1.34766,-0.95703 -3.69141,-0.95703 l -4.29687,0 0,12.32422 -3.94531,0 0,-29.16016 8.90625,0 q 5,0 7.46093,2.08984 2.46094,2.08985 2.46094,6.3086 0,2.7539 -1.28906,4.57031 -1.26953,1.81641 -3.71094,2.51953 z m -9.88281,-12.24609 0,10.35156 4.96094,0 q 2.85156,0 4.29687,-1.30859 1.46484,-1.32813 1.46484,-3.88672 0,-2.5586 -1.46484,-3.84766 -1.44531,-1.30859 -4.29687,-1.30859 l -4.96094,0 z"
         id="path4205" /></g></g><g
     inkscape:groupmode="layer"
     id="layer2"
     inkscape:label="rectangle" /><g
     inkscape:groupmode="layer"
     id="layer1"
     inkscape:label="text" /></svg>